<?xml version="1.0" encoding="utf-8"?>
<!-- Generator: Adobe Illustrator 23.0.4, SVG Export Plug-In . SVG Version: 6.00 Build 0)  -->
<svg version="1.1" xmlns="http://www.w3.org/2000/svg" xmlns:xlink="http://www.w3.org/1999/xlink" x="0px" y="0px"
	 viewBox="0 0 576 576" style="enable-background:new 0 0 576 576;" xml:space="preserve">
<style type="text/css">
	.st0{fill:#FFFFFF;}
	.st1{opacity:0.78;}
	.st2{clip-path:url(#SVGID_2_);}
	.st3{clip-path:url(#SVGID_6_);}
	.st4{clip-path:url(#SVGID_10_);fill:url(#SVGID_11_);}
	.st5{clip-path:url(#SVGID_13_);fill:url(#SVGID_14_);}
	.st6{clip-path:url(#SVGID_16_);fill:url(#SVGID_17_);}
	.st7{clip-path:url(#SVGID_19_);fill:url(#SVGID_20_);}
	.st8{clip-path:url(#SVGID_22_);fill:url(#SVGID_23_);}
	.st9{clip-path:url(#SVGID_25_);fill:url(#SVGID_26_);}
	.st10{clip-path:url(#SVGID_28_);fill:url(#SVGID_29_);}
	.st11{display:none;}
	.st12{display:inline;fill:#212E5F;}
	.st13{display:none;fill:url(#SVGID_30_);}
	.st14{font-family:'Helvetica-Light';}
	.st15{font-size:46px;}
	.st16{fill:#233368;}
	.st17{font-family:'Helvetica-Bold';}
	.st18{font-size:90px;}
	.st19{font-size:140px;}
	.st20{font-size:26px;}
</style>
<g id="Layer_6">
	<circle class="st0" cx="288.01" cy="269.33" r="225.09"/>
</g>
<g id="Layer_1">
	<g>
		<g class="st1">
			<g>
				<defs>
					<rect id="SVGID_1_" x="122.43" y="449.96" width="327.63" height="82.92"/>
				</defs>
				<clipPath id="SVGID_2_">
					<use xlink:href="#SVGID_1_"  style="overflow:visible;"/>
				</clipPath>
				<g class="st2">
					<defs>
						<path id="SVGID_3_" d="M286.09,450c90.53-1.02,163.87,16.22,163.96,39.28c-0.01,23.07-73.29,42.57-163.72,43.55
							c-90.53,1.01-163.83-16.88-163.91-39.92C122.33,469.85,195.67,450.99,286.09,450"/>
					</defs>
					<clipPath id="SVGID_4_">
						<use xlink:href="#SVGID_3_"  style="overflow:visible;"/>
					</clipPath>
				</g>
			</g>
		</g>
		<g class="st1">
			<g>
				<defs>
					<rect id="SVGID_5_" x="122.43" y="449.96" width="327.63" height="82.92"/>
				</defs>
				<clipPath id="SVGID_6_">
					<use xlink:href="#SVGID_5_"  style="overflow:visible;"/>
				</clipPath>
				<g class="st3">
					<defs>
						<path id="SVGID_7_" d="M286.09,450c90.53-1.02,163.87,16.22,163.96,39.28c-0.01,23.07-73.29,42.57-163.72,43.55
							c-90.53,1.01-163.83-16.88-163.91-39.92C122.33,469.85,195.67,450.99,286.09,450"/>
					</defs>
					<clipPath id="SVGID_8_">
						<use xlink:href="#SVGID_7_"  style="overflow:visible;"/>
					</clipPath>
				</g>
			</g>
		</g>
		<g>
			<defs>
				<path id="SVGID_9_" d="M108.32,132.18c-6.93,9.1-13.06,18.57-18.41,28.31h395.13c-14.67-26.25-34.83-51.84-60.28-71.23
					c-40.85-31.1-88.92-46.14-136.6-46.14C220.05,43.12,152.75,73.81,108.32,132.18"/>
			</defs>
			<clipPath id="SVGID_10_">
				<use xlink:href="#SVGID_9_"  style="overflow:visible;"/>
			</clipPath>
			
				<radialGradient id="SVGID_11_" cx="-320.6955" cy="874.3788" r="2.6419" gradientTransform="matrix(-43.607 -33.1968 -33.1968 43.607 15334.3379 -48623.3906)" gradientUnits="userSpaceOnUse">
				<stop  offset="0" style="stop-color:#7DD2EF"/>
				<stop  offset="1" style="stop-color:#1C779C"/>
			</radialGradient>
			<polygon class="st4" points="340.07,350.93 33.34,117.43 234.88,-147.32 541.61,86.19 			"/>
		</g>
		<g>
			<defs>
				<path id="SVGID_12_" d="M74.2,375.51c15.84,28.35,37.6,53.99,65.08,74.92c107.11,81.54,260.05,60.8,341.6-46.32
					c7.49-9.83,14.1-20.06,19.88-30.58L74.2,375.51z"/>
			</defs>
			<clipPath id="SVGID_13_">
				<use xlink:href="#SVGID_12_"  style="overflow:visible;"/>
			</clipPath>
			
				<radialGradient id="SVGID_14_" cx="-297.6985" cy="880.6475" r="2.6424" gradientTransform="matrix(-0.0537 39.5435 48.5782 0.0659 -42513.9531 12097.3652)" gradientUnits="userSpaceOnUse">
				<stop  offset="0" style="stop-color:#7DD2EF"/>
				<stop  offset="1" style="stop-color:#1C779C"/>
			</radialGradient>
			<polygon class="st5" points="500.97,373.53 500.75,532.54 73.98,531.96 74.2,372.95 			"/>
		</g>
		<g>
			<defs>
				<path id="SVGID_15_" d="M18.73,358.74l3.09,4.38c1.54,2.15,4.02,5.69,5.54,7.86l7.54,10.66c1.52,2.17,1.51,5.71,0.01,7.87
					l-7.52,10.66c-1.53,2.17-4.02,5.71-5.55,7.87l-3.08,4.39c-1.52,2.17-0.59,3.93,2.05,3.92l54.08-0.01l-0.02-61.54l-54.07,0
					C18.13,354.82,17.21,356.58,18.73,358.74"/>
			</defs>
			<clipPath id="SVGID_16_">
				<use xlink:href="#SVGID_15_"  style="overflow:visible;"/>
			</clipPath>
			
				<linearGradient id="SVGID_17_" gradientUnits="userSpaceOnUse" x1="-327.928" y1="882.1798" x2="-325.2855" y2="882.1798" gradientTransform="matrix(-24.6011 -18.7281 -18.7281 24.6011 8533.3066 -27433.2988)">
				<stop  offset="0" style="stop-color:#4A7ABD"/>
				<stop  offset="1" style="stop-color:#1F2C5F"/>
			</linearGradient>
			<polygon class="st6" points="53.73,444.14 -12.45,393.76 38.38,327 104.56,377.38 			"/>
		</g>
		<g>
			<defs>
				<path id="SVGID_18_" d="M555.17,354.65l-54.62,0.02l0.02,61.54l54.6-0.03c2.69,0,3.63-1.76,2.08-3.93l-3.12-4.37
					c-1.54-2.17-4.05-5.71-5.59-7.87l-7.6-10.65c-1.53-2.17-1.54-5.72,0-7.88l7.6-10.67c1.53-2.15,4.04-5.7,5.58-7.86l3.12-4.38
					c1.54-2.15,0.61-3.93-2.05-3.93C555.19,354.65,555.18,354.65,555.17,354.65"/>
			</defs>
			<clipPath id="SVGID_19_">
				<use xlink:href="#SVGID_18_"  style="overflow:visible;"/>
			</clipPath>
			
				<linearGradient id="SVGID_20_" gradientUnits="userSpaceOnUse" x1="-335.5089" y1="876.2488" x2="-332.8672" y2="876.2488" gradientTransform="matrix(-24.7322 -18.8279 -18.8279 24.7322 8761.7949 -27578.6445)">
				<stop  offset="0" style="stop-color:#4A7ABD"/>
				<stop  offset="1" style="stop-color:#1F2C5F"/>
			</linearGradient>
			<polygon class="st7" points="537.43,444.29 470.89,393.63 521.93,326.59 588.47,377.25 			"/>
		</g>
		<g>
			<defs>
				<polygon id="SVGID_21_" points="499.34,376.3 525.34,369.93 500.56,354.68 				"/>
			</defs>
			<clipPath id="SVGID_22_">
				<use xlink:href="#SVGID_21_"  style="overflow:visible;"/>
			</clipPath>
			
				<linearGradient id="SVGID_23_" gradientUnits="userSpaceOnUse" x1="-377.5003" y1="881.7547" x2="-374.8577" y2="881.7547" gradientTransform="matrix(-8.7212 -6.6392 -6.6392 8.7212 3084.6025 -9822.876)">
				<stop  offset="0" style="stop-color:#4A7ABD"/>
				<stop  offset="1" style="stop-color:#1F2C5F"/>
			</linearGradient>
			<polygon class="st8" points="515.8,388.83 488.92,368.36 508.88,342.15 535.77,362.61 			"/>
		</g>
		<g>
			<defs>
				<polygon id="SVGID_24_" points="48.88,370.07 75.98,378.83 74.87,354.8 				"/>
			</defs>
			<clipPath id="SVGID_25_">
				<use xlink:href="#SVGID_24_"  style="overflow:visible;"/>
			</clipPath>
			
				<linearGradient id="SVGID_26_" gradientUnits="userSpaceOnUse" x1="-361.1363" y1="899.5328" x2="-358.4934" y2="899.5328" gradientTransform="matrix(-8.0908 -6.1593 -6.1593 8.0908 2695.4128 -9124.5332)">
				<stop  offset="0" style="stop-color:#4A7ABD"/>
				<stop  offset="1" style="stop-color:#1F2C5F"/>
			</linearGradient>
			<polygon class="st9" points="66.04,391.89 37.29,370.01 58.82,341.73 87.56,363.62 			"/>
		</g>
		<g>
			<defs>
				<rect id="SVGID_27_" x="48.88" y="370" width="476.47" height="61.38"/>
			</defs>
			<clipPath id="SVGID_28_">
				<use xlink:href="#SVGID_27_"  style="overflow:visible;"/>
			</clipPath>
			
				<linearGradient id="SVGID_29_" gradientUnits="userSpaceOnUse" x1="-315.7764" y1="874.2737" x2="-313.133" y2="874.2737" gradientTransform="matrix(-125.3333 -95.4128 -95.4128 125.3333 44292.3789 -139177.9219)">
				<stop  offset="0" style="stop-color:#4A7ABD"/>
				<stop  offset="1" style="stop-color:#1F2C5F"/>
			</linearGradient>
			<polygon class="st10" points="350.53,661.1 19.22,408.88 223.7,140.29 555.01,392.51 			"/>
		</g>
		<polygon class="st0" points="399.09,146.88 392.38,133.92 377.9,132.09 388.17,121.7 385.42,107.35 398.47,113.9 411.28,106.86 
			409.07,121.31 419.71,131.29 405.31,133.67 		"/>
		<polygon class="st0" points="343.42,146.88 336.72,133.91 322.24,132.08 332.48,121.69 329.75,107.35 342.8,113.9 355.61,106.86 
			353.4,121.31 364.04,131.29 349.65,133.66 		"/>
		<polygon class="st0" points="287.75,146.88 281.04,133.91 266.57,132.09 276.83,121.71 274.08,107.36 287.13,113.9 299.94,106.87 
			297.73,121.32 308.39,131.3 293.98,133.66 		"/>
		<polygon class="st0" points="232.09,146.88 225.38,133.91 210.9,132.07 221.16,121.7 218.42,107.36 231.46,113.91 244.26,106.87 
			242.07,121.3 252.72,131.29 238.32,133.67 		"/>
		<polygon class="st0" points="176.42,146.88 169.71,133.91 155.24,132.07 165.5,121.7 162.75,107.36 175.8,113.91 188.59,106.87 
			186.4,121.3 197.06,131.29 182.65,133.67 		"/>
		<g class="st11">
			<path class="st12" d="M478.7,266.08h13.69v1.52h-5.96v17.29h-1.78V267.6h-5.96V266.08z"/>
			<path class="st12" d="M494.14,284.89v-18.81h2.71l6.17,16.59h0.05l6.06-16.59h2.69v18.81h-1.78v-16.77h-0.05l-6.16,16.77h-1.68
				l-6.19-16.77h-0.05v16.77H494.14z"/>
		</g>
	</g>
</g>
<g id="Layer_2">
	<linearGradient id="SVGID_30_" gradientUnits="userSpaceOnUse" x1="48.5938" y1="400.5119" x2="525.0699" y2="400.5119">
		<stop  offset="0" style="stop-color:#4A7ABD"/>
		<stop  offset="1" style="stop-color:#1F2C5F"/>
	</linearGradient>
	<rect x="48.59" y="369.89" class="st13" width="476.48" height="61.24"/>
	<text transform="matrix(1 0 0 1 74.612 414.1038)" class="st0 st14 st15">A Better Way To Buy</text>
</g>
<g id="Layer_3">
	<text transform="matrix(1 0 0 1 32.1461 238.6489)" class="st16 st17 st18">Walk-In Tub</text>
</g>
<g id="Layer_4">
	<text transform="matrix(1 0 0 1 86.9518 355.6108)" class="st16 st17 st19">World</text>
</g>
<g id="Layer_5">
	<text transform="matrix(1 0 0 1 476.9385 291.5146)" class="st16 st14 st20">TM</text>
</g>
</svg>
